<svg xmlns="http://www.w3.org/2000/svg" width="291" height="100"><path d="M100 53.83a.47.47 0 0 1 .13.6l-.81 1.48c-.28.48-.66 1-1.1 1.72s-1 1.41-1.69 2.19a28.56 28.56 0 0 1-5.59 5.05A28.24 28.24 0 0 1 82 69c-.88.26-1.8.44-2.73.62-.46.1-1 .14-1.46.21s-1 .14-1.46.15l-1.41.09h-3.16c-.52 0-1-.12-1.56-.19a30.59 30.59 0 0 1-12.48-4.48c-.27-.17-.53-.35-.79-.52-2.43.12-5.75 2.22-10.89 4.76s-9.56 6.59-15.89 11.11C10.28 95 2.34 98.5.34 99.46c-1.05.51 4.4-2.62 13.49-8.22 7.82-4.83 13.79-11 21-15.52a64.74 64.74 0 0 0 11.59-9.1c-1.65-2.18.4-6.67 2.73-6a1.77 1.77 0 0 1 1.09 1c.6-1.25.63-2.19 0-2.67-3.88-2.81-4.05-7.14-7.4-10.35-5.2-5-1.88-12.61 0-18a38.33 38.33 0 0 1 8.4-13.17c-2.68-.38-2.54-3-1.24-2.48.66-1.81 2.27 0 2.19 1.58A26.45 26.45 0 0 1 60 11.64a30.32 30.32 0 0 1 6.48-2.44 24.49 24.49 0 0 1 3.11-.62 23.69 23.69 0 0 1 3-.29h2.95l2.81.25a30 30 0 0 1 5.11 1.25 24.17 24.17 0 0 1 2.28.84l2.06 1a14.89 14.89 0 0 1 1.84 1.09l1.66 1.08c1 .81 1.9 1.52 2.68 2.21l1.95 2.05a20 20 0 0 1 1.24 1.58l1 1.34a.56.56 0 0 1-.83.73l-1.2-1.15a19.61 19.61 0 0 0-1.44-1.36l-2-1.58-2.7-1.75-1.62-.81a12.68 12.68 0 0 0-1.77-.8 31.31 31.31 0 0 0-8.62-2.08l-2.48-.06h-1.22l-1.38.1a18.84 18.84 0 0 0-2.61.38 20.22 20.22 0 0 0-2.6.65 27.35 27.35 0 0 0-10 5.49 28.23 28.23 0 0 0-7.22 9.76 26.88 26.88 0 0 0-2.13 12.33 21.42 21.42 0 0 0 .24 3.17 10.26 10.26 0 0 0 .32 1.52l.38 1.53c.17.5.35 1 .53 1.49A12 12 0 0 0 50.4 50a24.48 24.48 0 0 0 1.43 2.79l.8 1.34.93 1.25a24.32 24.32 0 0 0 2 2.36c.68.76 1.47 1.41 2.19 2.13s1.57 1.27 2.41 1.82A27.79 27.79 0 0 0 70.79 66c.46.08.91.18 1.36.23l1.36.1 1.28.1h1.41a12.76 12.76 0 0 0 1.3-.06c.42 0 .82 0 1.25-.1.84-.11 1.67-.21 2.47-.39a28.86 28.86 0 0 0 8.36-3.14 29.3 29.3 0 0 0 5.63-4.15c.74-.65 1.31-1.32 1.85-1.86s.92-1.08 1.25-1.5l1-1.3a.47.47 0 0 1 .69-.1zM70.68 32.58a3.7 3.7 0 0 1 1 1.84 21.66 21.66 0 0 1 .29 4.4 22.07 22.07 0 0 1-.2 3.48 4.68 4.68 0 0 1-.65 1.8 3.29 3.29 0 0 1-1.5 1.27 8.89 8.89 0 0 1-3 .36h-3.41V31.6h3.39a11.38 11.38 0 0 1 2.72.22 3.22 3.22 0 0 1 1.36.76zm-.53 6q0-1.43-.08-2.5a6.08 6.08 0 0 0-.2-1.36 2.18 2.18 0 0 0-.93-1.21 3.83 3.83 0 0 0-1.87-.36h-2v11h2a4.57 4.57 0 0 0 1.61-.23 1.75 1.75 0 0 0 .9-.75 4.37 4.37 0 0 0 .42-1.58 25.86 25.86 0 0 0 .16-3.02zm13.73-5.9a4.34 4.34 0 0 1 .9 1.95 23.17 23.17 0 0 1 .22 4.2 25.15 25.15 0 0 1-.17 3.42 5.45 5.45 0 0 1-.56 1.85 3.57 3.57 0 0 1-1.5 1.4 5 5 0 0 1-2.27.48 5.37 5.37 0 0 1-1.92-.33 3.63 3.63 0 0 1-1.41-1 4.06 4.06 0 0 1-.9-1.91 22.41 22.41 0 0 1-.26-4.11 28.5 28.5 0 0 1 .16-3.6 5.13 5.13 0 0 1 .56-1.82 3.38 3.38 0 0 1 1.48-1.39 5.19 5.19 0 0 1 2.29-.47 5.35 5.35 0 0 1 1.92.33 3.52 3.52 0 0 1 1.46.98zm-.75 6q0-3.58-.57-4.64a2.12 2.12 0 0 0-2-1.05 2.61 2.61 0 0 0-1.14.23 1.91 1.91 0 0 0-.79.69 3.68 3.68 0 0 0-.5 1.41 24.46 24.46 0 0 0-.15 3.36q0 2.12.09 3a4.69 4.69 0 0 0 .3 1.34 2.34 2.34 0 0 0 .82.98 2.41 2.41 0 0 0 1.33.35 2.11 2.11 0 0 0 2-1.06q.61-1.03.61-4.62zm10.59-5.78a2.23 2.23 0 0 1 1.72.65 2.78 2.78 0 0 1 .62 1.9H98a3.92 3.92 0 0 0-1.1-3 4.29 4.29 0 0 0-3.1-1.05 5.5 5.5 0 0 0-2.26.43A3.29 3.29 0 0 0 90 33.05a5.68 5.68 0 0 0-.73 2 19.63 19.63 0 0 0-.22 3.36 21.81 21.81 0 0 0 .3 4.2 4.53 4.53 0 0 0 1 2.16 3.3 3.3 0 0 0 1.41.9 6.57 6.57 0 0 0 2.11.3 12.91 12.91 0 0 0 1.82-.14c.66-.1 1.42-.25 2.28-.45V38.3H94.2v1.63h2v4.18q-.73.15-1.28.21a8.14 8.14 0 0 1-1 .07 2.36 2.36 0 0 1-2.27-1.15 10.87 10.87 0 0 1-.64-4.6A11.85 11.85 0 0 1 91.6 34a2.18 2.18 0 0 1 2.12-1.1zm21.14-1.3l4.32 14.14h-2l-.95-3.43h-5l-1 3.43h-2l4.44-14.14zm.84 9l-2-6.83-2.06 6.83zm14.8.88v1.26c0 .43 0 .87.06 1.33l-5.2-12.51h-2.66v14.18h1.69V34.45c0-.43-.06-1-.12-1.56l5.43 12.86h2.53V31.6h-1.73zm14.78-7.09a21.56 21.56 0 0 1 .29 4.4 22.21 22.21 0 0 1-.2 3.48 4.62 4.62 0 0 1-.65 1.8 3.29 3.29 0 0 1-1.5 1.27 8.92 8.92 0 0 1-3 .36h-3.39V31.6h3.39a11.42 11.42 0 0 1 2.72.22 3.22 3.22 0 0 1 1.37.76 3.66 3.66 0 0 1 .96 1.85zm-1.54 4.14q0-1.43-.08-2.5a5.87 5.87 0 0 0-.2-1.36 2.16 2.16 0 0 0-.93-1.21 3.82 3.82 0 0 0-1.87-.36h-2v11h2a4.6 4.6 0 0 0 1.62-.23 1.73 1.73 0 0 0 .9-.75 4.4 4.4 0 0 0 .43-1.56 25.63 25.63 0 0 0 .13-2.99zm19.78-6.1a4.12 4.12 0 0 1 .9 3 4.27 4.27 0 0 1-.88 3 3.62 3.62 0 0 1-2.77.95h-2.4v6.31h-1.87V31.6h3.85a4.51 4.51 0 0 1 3.17.87zm-1 3a2.54 2.54 0 0 0-.52-1.73 2.32 2.32 0 0 0-1.71-.51h-2v4.64h1.47a3.26 3.26 0 0 0 2.15-.51 2.48 2.48 0 0 0 .62-1.85zm14.32-.86a23 23 0 0 1 .26 4.21 25.17 25.17 0 0 1-.17 3.42 5.43 5.43 0 0 1-.56 1.85 3.58 3.58 0 0 1-1.5 1.4 5 5 0 0 1-2.27.48 5.36 5.36 0 0 1-1.92-.33 3.59 3.59 0 0 1-1.41-1 4 4 0 0 1-.9-1.91 22.34 22.34 0 0 1-.26-4.11 28.42 28.42 0 0 1 .16-3.6 5.13 5.13 0 0 1 .56-1.82 3.39 3.39 0 0 1 1.48-1.39 5.19 5.19 0 0 1 2.3-.47 5.35 5.35 0 0 1 1.92.33 3.51 3.51 0 0 1 1.41.95 4.31 4.31 0 0 1 .91 2.03zm-1.64 4.06q0-3.58-.57-4.64a2.12 2.12 0 0 0-2-1.05 2.62 2.62 0 0 0-1.14.23 1.91 1.91 0 0 0-.79.69 3.65 3.65 0 0 0-.5 1.41 24.37 24.37 0 0 0-.15 3.36q0 2.12.09 3a4.7 4.7 0 0 0 .3 1.34 2.33 2.33 0 0 0 .85 1.06 2.42 2.42 0 0 0 1.33.35 2.11 2.11 0 0 0 2-1.06q.59-1.06.59-4.65zm14 2.85v1.26c0 .43 0 .87.06 1.33l-5.2-12.51h-2.66v14.18h1.69V34.45c0-.43-.06-1-.12-1.56l5.43 12.86h2.6V31.6h-1.73zm9.8-3.22l-2.69-6.66h-2.14l3.71 8.22v5.92h1.9V40l3.93-8.39h-1.89zm19.69.17l-.8-.51q-2.89-1.8-2.89-3.16a1.76 1.76 0 0 1 .62-1.38 2.29 2.29 0 0 1 1.57-.55 2 2 0 0 1 1.56.58 2.5 2.5 0 0 1 .52 1.72v.3h1.95v-.35a3.59 3.59 0 0 0-1-2.76 4.13 4.13 0 0 0-2.93-1 4.45 4.45 0 0 0-3 1 3.29 3.29 0 0 0-1.15 2.68 3.51 3.51 0 0 0 .55 2 9.74 9.74 0 0 0 2.61 2.13l.58.36q2.63 1.64 2.63 2.86a2 2 0 0 1-.67 1.54 2.44 2.44 0 0 1-1.71.61 1.94 1.94 0 0 1-1.6-.62 3.11 3.11 0 0 1-.5-2v-.26h-2v.43A3.82 3.82 0 0 0 214 45a4.35 4.35 0 0 0 3.09 1 4.58 4.58 0 0 0 3.19-1 3.7 3.7 0 0 0 1.13-2.89 3 3 0 0 0-.53-1.78 8.44 8.44 0 0 0-2.22-1.9zm6.12-5.38h3.47v12.69h1.87V33.05h3.37V31.6h-8.71zM244 40.44v.32a10.45 10.45 0 0 1-.09 1.64 2.61 2.61 0 0 1-.3.87 2.24 2.24 0 0 1-.9.87 2.78 2.78 0 0 1-1.32.29 2.73 2.73 0 0 1-1.31-.29 2.31 2.31 0 0 1-.9-.87 2.65 2.65 0 0 1-.32-.88 10 10 0 0 1-.1-1.65V31.6H237v9a11.16 11.16 0 0 0 .19 2.42 4.11 4.11 0 0 0 .63 1.42 3.66 3.66 0 0 0 1.45 1.2 5.07 5.07 0 0 0 2.1.39 4.08 4.08 0 0 0 3.37-1.28 6.83 6.83 0 0 0 1-4.24V31.6H244zm14.83-6a21.59 21.59 0 0 1 .29 4.4 22.16 22.16 0 0 1-.2 3.48 4.66 4.66 0 0 1-.65 1.8 3.29 3.29 0 0 1-1.5 1.27 8.91 8.91 0 0 1-3 .36h-3.39V31.6h3.39a11.41 11.41 0 0 1 2.72.22 3.22 3.22 0 0 1 1.37.76 3.68 3.68 0 0 1 .95 1.85zm-1.54 4.14q0-1.43-.08-2.5a6 6 0 0 0-.2-1.36 2.18 2.18 0 0 0-.93-1.21 3.83 3.83 0 0 0-1.87-.36h-2v11h2a4.59 4.59 0 0 0 1.62-.23 1.74 1.74 0 0 0 .9-.75 4.37 4.37 0 0 0 .43-1.56 25.87 25.87 0 0 0 .11-3.04zm6.07 7.17h1.91V31.6h-1.91zm15-11.12a22.89 22.89 0 0 1 .26 4.21 25.26 25.26 0 0 1-.17 3.42 5.44 5.44 0 0 1-.56 1.85 3.58 3.58 0 0 1-1.5 1.4 5 5 0 0 1-2.27.48 5.36 5.36 0 0 1-1.92-.33 3.59 3.59 0 0 1-1.41-1 4.07 4.07 0 0 1-.9-1.91 22.29 22.29 0 0 1-.26-4.11 28.31 28.31 0 0 1 .16-3.6 5.09 5.09 0 0 1 .56-1.82 3.38 3.38 0 0 1 1.48-1.39 5.19 5.19 0 0 1 2.3-.47 5.36 5.36 0 0 1 1.92.33 3.51 3.51 0 0 1 1.41.95 4.3 4.3 0 0 1 .85 1.97zm-1.64 4.06q0-3.58-.57-4.64a2.12 2.12 0 0 0-2-1.05 2.62 2.62 0 0 0-1.14.23 1.9 1.9 0 0 0-.79.69 3.63 3.63 0 0 0-.5 1.41 24.55 24.55 0 0 0-.15 3.36q0 2.12.09 3a4.76 4.76 0 0 0 .3 1.34 2.34 2.34 0 0 0 .85 1.06 2.41 2.41 0 0 0 1.33.35 2.11 2.11 0 0 0 2-1.06q.52-1.12.53-4.71zm13.6 1.61a8.45 8.45 0 0 0-2.21-1.85l-.8-.51q-2.82-1.8-2.82-3.16a1.77 1.77 0 0 1 .62-1.38 2.29 2.29 0 0 1 1.57-.55 2 2 0 0 1 1.56.58 2.51 2.51 0 0 1 .52 1.72v.3h1.95v-.35a3.6 3.6 0 0 0-1-2.76 4.14 4.14 0 0 0-2.93-1 4.45 4.45 0 0 0-3 1 3.29 3.29 0 0 0-1.25 2.66 3.5 3.5 0 0 0 .56 2 9.7 9.7 0 0 0 2.61 2.13l.57.36q2.63 1.64 2.63 2.86a2 2 0 0 1-.67 1.54 2.44 2.44 0 0 1-1.71.61 1.94 1.94 0 0 1-1.6-.62 3.11 3.11 0 0 1-.5-2v-.26h-2v.43a3.83 3.83 0 0 0 1 2.91 4.34 4.34 0 0 0 3.09 1 4.58 4.58 0 0 0 3.19-1 3.7 3.7 0 0 0 1.13-2.89 3 3 0 0 0-.57-1.79zm-236.19 27c-1 1-.52 1.68-.11 2.41.8.09 1.19-.67 1.09-1.6s-.25-.96-1.04-.86zM42.57 19.69c1.61-2.65-1.65-5.56-2.82-2.15-1.1 1.33 1.25 4.14 2.82 2.15zM13.36 8.23c.69 2.48 3.05 4.16 6.79 3.23 1-.31 2.49-.64 2.83-1.95.22-.85.89-1.34 1-2.22s4.12.5 7.26 1.64A4.51 4.51 0 0 0 30.05 10c-2 2.4-1.69 2.57.35 4.56 10 1.37 4.49-2.65 4.75-3.53-.21-.31-.42-.6-.61-.85.29.11.43.16.37.11l-.44-.2c-1-1.26-2-1.82-3.15-1.2l-2.2-.79c-2.92-1-4.73-1.83-4.87-2.66-.82-4.9-8.56-6.77-9.88-2.81-1 3.94-2.32 4.65-2.22 5.1.93-.11.7-.81 1.21.5z" fill="#313e4f"/></svg>